<?xml version="1.0" encoding="UTF-8"?>
<svg width="20px" height="20px" viewBox="0 0 20 20" version="1.1" xmlns="http://www.w3.org/2000/svg" xmlns:xlink="http://www.w3.org/1999/xlink">
    <title>Home</title>
    <g id="Page-1" stroke="none" stroke-width="1" fill="none" fill-rule="evenodd">
        <g id="home01" transform="translate(-21.000000, -190.000000)" fill="#1741D4" fill-rule="nonzero">
            <g id="home" transform="translate(21.000000, 190.000000)">
                <path d="M19.2707779,8.60473587 L11.7220599,0.754479464 C11.2601158,0.27251378 10.6214499,1.77635684e-15 9.95385478,1.77635684e-15 C9.28625962,1.77635684e-15 8.64759377,0.27251378 8.18564965,0.754479464 L0.638982982,8.60473587 C-0.140504198,9.4252487 -0.0399913773,10.1165307 0.0871881099,10.4078128 C0.310899321,10.9147683 0.828826253,11.2266736 1.38154708,11.1873 L2.48923939,11.1873 L2.48923939,17.2262743 C2.48923939,18.5965307 3.47385478,19.892941 4.87488042,19.892941 L8.08718811,19.892941 L8.08718811,13.4970436 C8.08718811,12.8119154 7.98462401,12.4303769 8.68411119,12.4303769 L11.2235984,12.4303769 C11.9251368,12.4303769 11.8205214,12.8119154 11.8205214,13.4970436 L11.8205214,19.8888384 L15.0348804,19.8888384 C16.4338548,19.8888384 17.4205214,18.5965307 17.4205214,17.2221718 L17.4205214,11.1873 L18.5261625,11.1873 C19.0788833,11.2266736 19.5968102,10.9147683 19.8205214,10.4078128 C19.9497522,10.1165307 20.050265,9.41499228 19.2707779,8.60473587 Z" id="Path"></path>
            </g>
        </g>
    </g>
</svg>