<?xml version="1.0" encoding="UTF-8"?>
<svg width="20px" height="20px" viewBox="0 0 20 20" version="1.1" xmlns="http://www.w3.org/2000/svg" xmlns:xlink="http://www.w3.org/1999/xlink">
    <title>Oracles</title>
    <g id="Page-1" stroke="none" stroke-width="1" fill="none" fill-rule="evenodd">
        <g id="home01" transform="translate(-21.000000, -308.000000)" fill-rule="nonzero">
            <g id="Oracles" transform="translate(21.000000, 308.000000)">
                <path d="M0,1.29260976 L0,18.7073902 C0,19.4218707 0.57616524,20 1.28821851,20 L18.7117815,20 C19.4238348,20 20,19.4218707 20,18.7073902 L20,1.29260976 C20,0.578129261 19.4238348,0 18.7117815,0 L1.28821851,0 C0.57616524,0 0,0.578129261 0,1.29260976 Z" id="Shape" fill="#173DC9"></path>
                <path d="M5.92510575,16 C5.41328689,16 5,15.5869187 5,15.0753544 L5,11.4095996 C5,10.8980353 5.41328689,10.484954 5.92510575,10.484954 C6.43692461,10.484954 6.8502115,10.8980353 6.8502115,11.4095996 L6.8502115,15.0753544 C6.8502115,15.584183 6.43418761,16 5.92510575,16 Z M10.4958945,16 C9.98407564,16 9.57078875,15.5869187 9.57078875,15.0753544 L9.57078875,5.92464561 C9.57078875,5.41308132 9.98407564,5 10.4958945,5 C11.0077134,5 11.4210002,5.41308132 11.4210002,5.92464561 L11.4210002,15.0753544 C11.4210002,15.584183 11.0077134,16 10.4958945,16 Z M15.0748943,16 C14.5630754,16 14.1497885,15.5869187 14.1497885,15.0753544 L14.1497885,9.58492912 C14.1497885,9.07336483 14.5630754,8.66028351 15.0748943,8.66028351 C15.5867131,8.66028351 16,9.07336483 16,9.58492912 L16,15.0753544 C16,15.584183 15.5839761,16 15.0748943,16 Z" id="Shape" fill="#FFFFFF"></path>
            </g>
        </g>
    </g>
</svg>