<?xml version="1.0" encoding="UTF-8"?>
<svg width="20px" height="20px" viewBox="0 0 20 20" version="1.1" xmlns="http://www.w3.org/2000/svg" xmlns:xlink="http://www.w3.org/1999/xlink">
    <title>Stablecoin</title>
    <g id="Page-1" stroke="none" stroke-width="1" fill="none" fill-rule="evenodd">
        <g id="home01" transform="translate(-21.000000, -250.000000)">
            <g id="coin" transform="translate(21.000000, 250.000000)">
                <rect id="Rectangle" x="0" y="0" width="20" height="20"></rect>
                <g id="Group" transform="translate(0.000000, 2.000000)" fill-rule="nonzero">
                    <path d="M2.44241665,3.21098762 L11.044801,3.21098762 C11.6833605,3.21098762 12.2025165,2.69182779 12.2025165,2.05144652 L12.2025165,1.1594945 C12.2025165,0.515897116 11.6839393,1.77635684e-15 11.044801,1.77635684e-15 L2.44241665,1.77635684e-15 C1.80377936,1.77635684e-15 1.28408741,0.519148185 1.28408741,1.15949452 L1.28408741,2.05197866 C1.28408741,2.69543231 1.80324724,3.21098762 2.44241665,3.21098762 Z M9.56983318,7.38572633 C9.96080333,6.9289387 10.414437,6.52776092 10.9188175,6.19536423 L10.9188175,5.33428372 C10.9188175,4.69068633 10.4000461,4.17473095 9.76077182,4.17473095 L1.15794082,4.17473095 C0.51969197,4.17473095 0,4.69379367 0,5.3342837 L0,6.22676007 C0,6.87036521 0.518623815,7.38626232 1.15794082,7.38626232 L9.57036919,7.3857302 L9.56983318,7.38573022 L9.56983318,7.38572633 Z M1.28408741,9.50896805 L1.28408741,10.4014366 C1.28408741,11.0450418 1.80260634,11.5610943 2.44193113,11.5610943 L8.02713689,11.5610943 C8.02713689,10.3909494 8.33980193,9.29467771 8.88686184,8.350048 L2.44241665,8.350048 C1.80378325,8.34951629 1.28408741,8.86847025 1.28408741,9.50896805 Z M1.79998453,12.5241695 C1.16120353,12.5241695 0.642043707,13.0432944 0.642043707,13.6837922 L0.642043707,14.57649 C0.642043707,15.2200602 1.16066752,15.7357203 1.79998453,15.7357203 L9.56983318,15.7357203 C8.80582614,14.843446 8.28278214,13.7401867 8.09961575,12.5241695 L1.79998453,12.5241695 L1.79998453,12.5241695 Z M14.4591174,6 C11.4445141,6 9,8.44450634 9,11.4598943 C9,14.4747112 11.4445141,16.9184407 14.4591174,16.9184407 C17.474886,16.9184407 19.9190039,14.4747112 19.9190039,11.4598943 C19.9184174,8.44450634 17.4743034,6 14.4591174,6 Z" id="Shape" fill="#173DC9"></path>
                    <path d="M16.9999522,12.5508192 C16.9882137,12.019326 16.6762052,11.6118305 16.0639268,11.3283326 C16.5261289,11.1102895 16.7606635,10.7756845 16.7706999,10.3246746 C16.7188159,9.48685297 16.0303548,9.03296308 14.7053166,8.96300498 L14.6449222,8.96159115 L14.6567194,8.17346279 L13.9108572,8.16513693 L13.8992361,8.95059474 L13.1533739,8.93944124 L13.1674601,8.00961628 L12.42195,7.99799151 L12.40804,8.92483172 L12.3462369,8.92388918 L12.0645137,8.91996189 L12.0645137,8.92106153 L11.0763696,8.90975093 L11.0633399,9.69835057 L12.0483146,9.70950407 L11.9796446,13.135671 L11.0112211,13.1246746 L10.9999522,13.9140597 L12.7112446,13.9343245 L12.6946933,14.9896656 L13.4405555,14.9979915 L13.4571067,13.9426504 L14.102605,13.9525472 L14.088695,14.870119 L14.8347332,14.8784448 L14.8484672,13.9637007 C16.264009,13.9714505 16.9811119,13.5001758 16.9997761,12.5498766 L16.9999522,12.5508192 Z M14.5172664,9.75584609 C15.1799029,9.78244693 15.5307069,9.97315608 15.5696786,10.3279736 C15.5379848,10.7463084 15.1801963,10.9585391 14.4926156,10.9632518 L13.2227483,10.9440867 L13.247223,9.73668091 L14.5172664,9.75584609 Z M14.6200954,13.2134314 L13.1790812,13.190496 L13.2090143,11.7648901 L14.5471995,11.7860974 C15.3707116,11.8153165 15.7873098,12.063364 15.8022764,12.5308685 C15.7690565,12.9811977 15.3751722,13.2086139 14.6206236,13.2131172 L14.6200954,13.2134314 Z" id="Shape" fill="#FFFFFF"></path>
                </g>
            </g>
        </g>
    </g>
</svg>