<?xml version="1.0" encoding="UTF-8"?>
<svg width="11px" height="14px" viewBox="0 0 11 14" version="1.1" xmlns="http://www.w3.org/2000/svg" xmlns:xlink="http://www.w3.org/1999/xlink">
    <title>Lock-tag</title>
    <g id="shutdown" stroke="none" stroke-width="1" fill="none" fill-rule="evenodd">
        <g id="Self-Serviced-Loan01" transform="translate(-327.000000, -467.000000)" fill="#FFFFFF" fill-rule="nonzero">
            <g id="lock-(1)" transform="translate(327.000000, 467.000000)">
                <path d="M9.625,14 L0.875,14 C0.39375,14 0,13.60625 0,13.125 L0,5.6875 C0,5.20625 0.39375,4.8125 0.875,4.8125 L2.1875,4.8125 L2.1875,3.0625 C2.1875,1.378125 3.565625,0 5.25,0 C6.934375,0 8.3125,1.378125 8.3125,3.0625 L8.3125,4.8125 L9.625,4.8125 C10.10625,4.8125 10.5,5.20625 10.5,5.6875 L10.5,13.125 C10.5,13.60625 10.10625,14 9.625,14 Z M4.8125,9.5375 L4.8125,11.375 L5.6875,11.375 L5.6875,9.5375 C6.190625,9.3625 6.5625,8.88125 6.5625,8.3125 C6.5625,7.590625 5.971875,7 5.25,7 C4.528125,7 3.9375,7.590625 3.9375,8.3125 C3.9375,8.88125 4.309375,9.3625 4.8125,9.5375 Z M7,3.0625 C7,2.1 6.2125,1.3125 5.25,1.3125 C4.2875,1.3125 3.5,2.1 3.5,3.0625 L3.5,4.8125 L7,4.8125 L7,3.0625 Z" id="Shape"></path>
            </g>
        </g>
    </g>
</svg>