<?xml version="1.0" encoding="UTF-8"?>
<svg width="42px" height="43px" viewBox="0 0 42 43" version="1.1" xmlns="http://www.w3.org/2000/svg" xmlns:xlink="http://www.w3.org/1999/xlink">
    <title>Lock-logo</title>
    <g id="shutdown" stroke="none" stroke-width="1" fill="none" fill-rule="evenodd">
        <g id="Self-Serviced-Loan02" transform="translate(-344.000000, -380.000000)" fill-rule="nonzero">
            <g id="比特币区块链图标合集" transform="translate(344.000000, 380.000000)">
                <path d="M27,35 C27,38.8659932 30.1340068,42 34,42 C37.8659932,42 41,38.8659932 41,35 C41,31.1340068 37.8659932,28 34,28 C30.1340068,28 27,31.1340068 27,35 L27,35 Z" id="Path" fill="#FFD740"></path>
                <path d="M34.5,43 C30.3642857,43 27,39.6357143 27,35.5 C27,31.3642857 30.3642857,28 34.5,28 C38.6357143,28 42,31.3642857 42,35.5 C42,39.6357143 38.6357143,43 34.5,43 Z M34.5,28.7142857 C30.7585714,28.7142857 27.7142857,31.7585714 27.7142857,35.5 C27.7142857,39.2414286 30.7585714,42.2857143 34.5,42.2857143 C38.2414286,42.2857143 41.2857143,39.2414286 41.2857143,35.5 C41.2857143,31.7585714 38.2414286,28.7142857 34.5,28.7142857 Z" id="Shape" fill="#263238"></path>
                <path d="M35.0769231,36 L32.3846154,36 C32.1721982,36 32,35.8209139 32,35.6 L32,32.4 C32,32.1790861 32.1721982,32 32.3846154,32 L35.0769231,32 C36.1376923,32 37,32.8976 37,34 C37,35.1024 36.1376923,36 35.0769231,36 Z M32.7692308,35.2 L35.0769231,35.2 C35.7130769,35.2 36.2307692,34.6616 36.2307692,34 C36.2307692,33.3384 35.7130769,32.8 35.0769231,32.8 L32.7692308,32.8 L32.7692308,35.2 Z" id="Shape" fill="#263238"></path>
                <path d="M35.3333333,38 L32.3333333,38 C32.1492384,38 32,37.8507616 32,37.6666667 L32,35 C32,34.8159051 32.1492384,34.6666667 32.3333333,34.6666667 L35.3333333,34.6666667 C36.2526667,34.6666667 37,35.4146667 37,36.3333333 C37,37.252 36.2526667,38 35.3333333,38 Z M32.6666667,37.3333333 L35.3333333,37.3333333 C35.8846667,37.3333333 36.3333333,36.8846667 36.3333333,36.3333333 C36.3333333,35.782 35.8846667,35.3333333 35.3333333,35.3333333 L32.6666667,35.3333333 L32.6666667,37.3333333 Z M32.3333333,32.6666667 L31.3333333,32.6666667 C31.1492384,32.6666667 31,32.5174282 31,32.3333333 C31,32.1492384 31.1492384,32 31.3333333,32 L32.3333333,32 C32.5174282,32 32.6666667,32.1492384 32.6666667,32.3333333 C32.6666667,32.5174282 32.5174282,32.6666667 32.3333333,32.6666667 Z" id="Shape" fill="#263238"></path>
                <path d="M33.1493598,38.5652174 L32.0803697,38.5652174 C31.883574,38.5652174 31.7240396,38.4046239 31.7240396,38.2065217 C31.7240396,38.0084196 31.883574,37.8478261 32.0803697,37.8478261 L33.1493598,37.8478261 C33.3461554,37.8478261 33.5056898,38.0084196 33.5056898,38.2065217 C33.5056898,38.4046239 33.3461554,38.5652174 33.1493598,38.5652174 Z M34.2183498,32.826087 C34.0215542,32.826087 33.8620198,32.6654934 33.8620198,32.4673913 L33.8620198,31.0326087 C33.8620198,30.8345066 34.0215542,30.673913 34.2183498,30.673913 C34.4151455,30.673913 34.5746799,30.8345066 34.5746799,31.0326087 L34.5746799,32.4673913 C34.5746799,32.6654934 34.4151455,32.826087 34.2183498,32.826087 Z M35.64367,32.826087 C35.4468743,32.826087 35.2873399,32.6654934 35.2873399,32.4673913 L35.2873399,31.0326087 C35.2873399,30.8345066 35.4468743,30.673913 35.64367,30.673913 C35.8404656,30.673913 36,30.8345066 36,31.0326087 L36,32.4673913 C36,32.6654934 35.8404656,32.826087 35.64367,32.826087 Z M34.2183498,40 C34.0215542,40 33.8620198,39.8394065 33.8620198,39.6413043 L33.8620198,38.2065217 C33.8620198,38.0084196 34.0215542,37.8478261 34.2183498,37.8478261 C34.4151455,37.8478261 34.5746799,38.0084196 34.5746799,38.2065217 L34.5746799,39.6413043 C34.5746799,39.8394065 34.4151455,40 34.2183498,40 Z M35.64367,40 C35.4468743,40 35.2873399,39.8394065 35.2873399,39.6413043 L35.2873399,38.2065217 C35.2873399,38.0084196 35.4468743,37.8478261 35.64367,37.8478261 C35.8404656,37.8478261 36,38.0084196 36,38.2065217 L36,39.6413043 C36,39.8394065 35.8404656,40 35.64367,40 Z M5.35633003,10.5869565 C5.15953439,10.5869565 5,10.426363 5,10.2282609 L5,7.35869565 C5,7.16059351 5.15953439,7 5.35633003,7 C5.55312567,7 5.71266006,7.16059351 5.71266006,7.35869565 L5.71266006,10.2282609 C5.71266006,10.426363 5.55312567,10.5869565 5.35633003,10.5869565 Z" id="Shape" fill="#263238"></path>
                <path d="M6.66671111,9.72727273 L4.00039995,9.72727273 C3.81632957,9.72727273 3.66711105,9.56446718 3.66711105,9.36363636 C3.66711105,9.16280555 3.81632957,9 4.00039995,9 L6.66671111,9 C6.85078148,9 7,9.16280555 7,9.36363636 C7,9.56446718 6.85078148,9.72727273 6.66671111,9.72727273 Z M2.33328889,17 C2.14921852,17 2,16.8371945 2,16.6363636 L2,13.7272727 C2,13.5264419 2.14921852,13.3636364 2.33328889,13.3636364 C2.51735927,13.3636364 2.66657779,13.5264419 2.66657779,13.7272727 L2.66657779,16.6363636 C2.66657779,16.8371945 2.51735927,17 2.33328889,17 Z" id="Shape" fill="#263238"></path>
                <path d="M3.15,15.1111111 L0.35,15.1111111 C0.156700338,15.1111111 0,14.9519235 0,14.7555556 C0,14.5591876 0.156700338,14.4 0.35,14.4 L3.15,14.4 C3.34329966,14.4 3.5,14.5591876 3.5,14.7555556 C3.5,14.9519235 3.34329966,15.1111111 3.15,15.1111111 Z M3.85,40 C3.65670034,40 3.5,39.8408124 3.5,39.6444444 L3.5,38.9333333 C3.5,38.7369654 3.65670034,38.5777778 3.85,38.5777778 C4.04329966,38.5777778 4.2,38.7369654 4.2,38.9333333 L4.2,39.6444444 C4.2,39.8408124 4.04329966,40 3.85,40 Z M3.85,37.8666667 C3.65670034,37.8666667 3.5,37.707479 3.5,37.5111111 L3.5,26.8444444 C3.5,26.6480765 3.65670034,26.4888889 3.85,26.4888889 C4.04329966,26.4888889 4.2,26.6480765 4.2,26.8444444 L4.2,37.5111111 C4.2,37.707479 4.04329966,37.8666667 3.85,37.8666667 Z M34.65,9.42222222 C34.4567003,9.42222222 34.3,9.26303458 34.3,9.06666667 L34.3,8.35555556 C34.3,8.15918764 34.4567003,8 34.65,8 C34.8432997,8 35,8.15918764 35,8.35555556 L35,9.06666667 C35,9.26303458 34.8432997,9.42222222 34.65,9.42222222 Z M34.65,21.5111111 C34.4567003,21.5111111 34.3,21.3519235 34.3,21.1555556 L34.3,10.4888889 C34.3,10.292521 34.4567003,10.1333333 34.65,10.1333333 C34.8432997,10.1333333 35,10.292521 35,10.4888889 L35,21.1555556 C35,21.3519235 34.8432997,21.5111111 34.65,21.5111111 Z M25.8258,37.8666667 L10.85,37.8666667 C8.72466326,37.8643152 7.00231476,36.1146278 7,33.9555556 L7,18.3111111 C7,16.1543111 8.7276,14.4 10.85,14.4 L27.65,14.4 C29.7724,14.4 31.5,16.1543111 31.5,18.3111111 L31.5,27.3400889 C31.5,27.5364568 31.3432997,27.6956444 31.15,27.6956444 C30.9567003,27.6956444 30.8,27.5364568 30.8,27.3400889 L30.8,18.3111111 C30.8,16.5468444 29.3867,15.1111111 27.65,15.1111111 L10.85,15.1111111 C9.11110264,15.1130706 7.7019289,16.5446122 7.7,18.3111111 L7.7,33.9555556 C7.7,35.7198222 9.1133,37.1555556 10.85,37.1555556 L25.8258,37.1555556 C26.0190997,37.1555556 26.1758,37.3147432 26.1758,37.5111111 C26.1758,37.707479 26.0190997,37.8666667 25.8258,37.8666667 Z" id="Shape" fill="#263238"></path>
                <path d="M18.5185046,31 C18.2502848,31 17.982065,30.8923918 17.7774077,30.6764385 L14.3198867,27.0280795 C14.0475214,26.7505008 13.9382889,26.3394486 14.0341727,25.9529111 C14.1300565,25.5663736 14.4161349,25.2645051 14.7824534,25.163329 C15.1487719,25.0621529 15.5383229,25.1774145 15.8013821,25.464813 L18.5185046,28.3311701 L24.1986179,22.3375428 C24.4616771,22.0501444 24.8512281,21.9348828 25.2175466,22.0360589 C25.5838651,22.137235 25.8699435,22.4391035 25.9658273,22.825641 C26.0617111,23.2121784 25.9524786,23.6232307 25.6801133,23.9008094 L19.2596016,30.6757014 C19.0549443,30.8923918 18.7867244,31 18.5185046,31 L18.5185046,31 Z" id="Path" fill="#4DB6AC"></path>
                <path d="M18.47288,30.9999948 C18.0907781,31.0010233 17.7241564,30.849228 17.4548,30.5784657 L13.8908,27.0178116 C13.6195787,26.7488451 13.4676037,26.3824782 13.468872,26.0006874 C13.468872,25.6165683 13.61864,25.2554676 13.8908,24.9835631 C14.43512,24.4397542 15.38264,24.4397542 15.92696,24.9835631 L18.47288,27.527093 L24.07304,21.9321905 C24.4851263,21.5216054 25.104004,21.3990439 25.6416995,21.6215359 C26.179395,21.8440279 26.5302949,22.3678718 26.53112,22.9493147 C26.53112,23.3334338 26.38136,23.6952538 26.1092,23.9664389 L19.49096,30.5784657 C19.2188,30.8503702 18.85736,30.9999948 18.47288,30.9999948 L18.47288,30.9999948 Z M14.90888,25.2813633 C14.6166807,25.2792871 14.3523827,25.4543706 14.2405685,25.7240844 C14.1287543,25.9937983 14.1917416,26.3043084 14.39984,26.5092495 L17.96384,30.0699036 C18.2485863,30.3419249 18.6971737,30.3419249 18.98192,30.0699036 L25.60016,23.4578768 C25.7356707,23.323266 25.8118651,23.1402303 25.8118651,22.9493147 C25.8118651,22.7583992 25.7356707,22.5753634 25.60016,22.4407526 C25.3190001,22.1599415 24.8632399,22.1599415 24.58208,22.4407526 L18.72704,28.2902958 C18.5864601,28.4307014 18.3585799,28.4307014 18.218,28.2902958 L15.4172,25.4928446 C15.2829539,25.3571728 15.0998337,25.2809876 14.90888,25.2813633 Z M28.64,13.6671571 C28.4411775,13.6671571 28.28,13.5061309 28.28,13.3074951 L28.28,8.99155071 C28.28,4.43031687 24.56552,0.719324057 20,0.719324057 C15.43448,0.719324057 11.72,4.43031687 11.72,8.99155071 L11.72,13.3074951 C11.72,13.5061309 11.5588225,13.6671571 11.36,13.6671571 C11.1611775,13.6671571 11,13.5061309 11,13.3074951 L11,8.99155071 C11,4.03324999 15.03704,0 20,0 C24.96296,0 29,4.03324999 29,8.99155071 L29,13.3074951 C29,13.5061309 28.8388225,13.6671571 28.64,13.6671571 Z" id="Shape" fill="#263238"></path>
                <path d="M25.6470588,14 C25.4521348,14 25.2941176,13.8358377 25.2941176,13.6333333 L25.2941176,9.23333333 C25.2941176,6.20026667 22.9195294,3.73333333 20,3.73333333 C17.0804706,3.73333333 14.7058824,6.20026667 14.7058824,9.23333333 L14.7058824,13.6333333 C14.7058824,13.8358377 14.5478652,14 14.3529412,14 C14.1580171,14 14,13.8358377 14,13.6333333 L14,9.23333333 C14,5.7962 16.6915294,3 20,3 C23.3084706,3 26,5.7962 26,9.23333333 L26,13.6333333 C26,13.8358377 25.8419829,14 25.6470588,14 Z" id="Path" fill="#263238"></path>
                <path d="M26.6547242,40 L11.0358274,40 C10.4647412,40 10,39.6635 10,39.25 C10,39.1119288 10.1545852,39 10.3452758,39 C10.5359664,39 10.6905516,39.1119288 10.6905516,39.25 C10.6905516,39.3880712 10.8451369,39.5 11.0358274,39.5 L26.6547242,39.5 C26.8454148,39.5 27,39.6119288 27,39.75 C27,39.8880712 26.8454148,40 26.6547242,40 L26.6547242,40 Z" id="Path" fill="#263238"></path>
            </g>
        </g>
    </g>
</svg>