<?xml version="1.0" encoding="UTF-8"?>
<svg width="90px" height="90px" viewBox="0 0 90 90" version="1.1" xmlns="http://www.w3.org/2000/svg" xmlns:xlink="http://www.w3.org/1999/xlink">
    <title>Reclaim-success</title>
    <defs>
        <linearGradient x1="100%" y1="66.3451663%" x2="1.84781216%" y2="66.3451663%" id="linearGradient-1">
            <stop stop-color="#DF008E" offset="0%"></stop>
            <stop stop-color="#FF4E4E" offset="100%"></stop>
        </linearGradient>
        <linearGradient x1="100%" y1="66.3451663%" x2="1.84781216%" y2="66.3451663%" id="linearGradient-2">
            <stop stop-color="#DF008E" offset="0%"></stop>
            <stop stop-color="#FF4E4E" offset="100%"></stop>
        </linearGradient>
    </defs>
    <g id="shutdown" stroke="none" stroke-width="1" fill="none" fill-rule="evenodd">
        <g id="Self-Serviced-Loan04" transform="translate(-796.000000, -304.000000)">
            <g id="Group-3" transform="translate(796.000000, 304.000000)">
                <path d="M45,1 C32.8497355,1 21.8497355,5.92486775 13.8873016,13.8873016 C5.92486775,21.8497355 1,32.8497355 1,45 C1,57.1502645 5.92486775,68.1502645 13.8873016,76.1126984 C21.8497355,84.0751322 32.8497355,89 45,89 C57.1502645,89 68.1502645,84.0751322 76.1126984,76.1126984 C84.0751322,68.1502645 89,57.1502645 89,45 C89,32.8497355 84.0751322,21.8497355 76.1126984,13.8873016 C68.1502645,5.92486775 57.1502645,1 45,1 Z" id="Oval-1-Copy-21" stroke="url(#linearGradient-1)" stroke-width="2"></path>
                <path d="M59.2051285,33.0145564 L40.2649643,51.9546775 L30.7949037,42.4846169 C29.6326381,41.3223513 27.7482344,41.3223513 26.5859688,42.4846169 C25.4237462,43.6468826 25.4237032,45.5312863 26.5859688,46.6935088 L38.1604969,58.2679939 C38.1939886,58.3015286 38.2265763,58.3323944 38.2584752,58.3611507 C39.4263801,59.4290111 41.2391942,59.3981884 42.3694318,58.2679939 L63.4139774,37.2234913 C64.5762861,36.0612257 64.5762861,34.176822 63.4140204,33.0145564 C62.2517979,31.8522907 60.3673942,31.8522907 59.2051285,33.0145564 Z" id="Shape-Copy-4" fill="url(#linearGradient-2)"></path>
            </g>
        </g>
    </g>
</svg>