<?xml version="1.0" encoding="UTF-8"?>
<svg width="62px" height="18px" viewBox="0 0 62 18" version="1.1" xmlns="http://www.w3.org/2000/svg" xmlns:xlink="http://www.w3.org/1999/xlink">
    <!-- Generator: Sketch 63.1 (92452) - https://sketch.com -->
    <title>laminar的副本 copy</title>
    <desc>Created with Sketch.</desc>
    <defs>
        <linearGradient x1="12.752381%" y1="45.5802606%" x2="91.0714286%" y2="58.4997474%" id="linearGradient-1">
            <stop stop-color="#0055FF" offset="0%"></stop>
            <stop stop-color="#0A52F5" offset="9%"></stop>
            <stop stop-color="#2648D9" offset="23%"></stop>
            <stop stop-color="#523AAD" offset="42%"></stop>
            <stop stop-color="#90256F" offset="65%"></stop>
            <stop stop-color="#DE0B21" offset="90%"></stop>
            <stop stop-color="#FF0000" offset="100%"></stop>
        </linearGradient>
        <linearGradient x1="17.3190476%" y1="41.8913319%" x2="103.238095%" y2="76.2730182%" id="linearGradient-2">
            <stop stop-color="#000000" stop-opacity="0" offset="50%"></stop>
            <stop stop-color="#000000" stop-opacity="0.87" offset="100%"></stop>
        </linearGradient>
    </defs>
    <g id="Page-1" stroke="none" stroke-width="1" fill="none" fill-rule="evenodd">
        <g id="laminar的副本-copy" fill-rule="nonzero">
            <path d="M61.2972973,17.4332432 C61.2036739,10.1910496 56.6617437,3.75361974 49.8701574,1.2371754 C43.0785715,-1.27926894 35.4386234,0.644485018 30.6486486,6.07718919 C25.8311044,0.614607349 18.1355783,-1.29615567 11.3224073,1.27857412 C4.50923624,3.8533039 0.000761034099,10.3760171 0,17.6594595 L8.75675676,17.6594595 C8.75675676,17.5835676 8.75675676,17.5135135 8.75675676,17.4332432 C8.81922474,12.5970201 12.7903985,8.72712686 17.6266216,8.78959474 C22.4628448,8.85206262 26.3327381,12.8232363 26.2702703,17.6594595 L35.027027,17.6594595 C35.027027,17.5835676 35.027027,17.5135135 35.027027,17.4332432 C35.089495,12.5970201 39.0606687,8.72712686 43.8968919,8.78959474 C48.7331149,8.85206262 52.6030083,12.8232363 52.5405405,17.6594595 L61.2972973,17.6594595 C61.2972973,17.5835676 61.2972973,17.5135135 61.2972973,17.4332432 Z" id="路径" fill="url(#linearGradient-1)"></path>
            <path d="M30.6486486,6.07718919 C27.821796,9.27254189 26.2641038,13.393157 26.2702339,17.6594595 L35.027027,17.6594595 C35.027027,17.5835676 35.027027,17.5135135 35.027027,17.4332432 C34.9776628,13.2451161 33.4236197,9.21444621 30.6486486,6.07718919 Z" id="路径" fill="#0000FF" opacity="0.31" style="mix-blend-mode: multiply;"></path>
            <path d="M21.8918919,0.697621622 C16.6470066,-0.650592613 11.0734355,0.501232982 6.79261121,3.8180156 C2.51178699,7.13479821 0.00444223824,12.2440663 6.91338878e-15,17.6594595 L8.75675676,17.6594595 C8.75675676,17.5835676 8.75675676,17.5135135 8.75675676,17.4332432 C8.81922474,12.5970201 12.7903985,8.72712686 17.6266216,8.78959474 C22.4628448,8.85206262 26.3327381,12.8232363 26.2702703,17.6594595 C26.2641038,13.393157 27.821796,9.27254189 30.6486486,6.07718919 C28.3338502,3.44809147 25.2833883,1.57409105 21.8918919,0.697621622 Z" id="路径" fill="url(#linearGradient-2)"></path>
        </g>
    </g>
</svg>